<svg width="70" height="70" viewBox="0 0 70 70" fill="none" xmlns="http://www.w3.org/2000/svg">
<path d="M44.5938 46.0938L37.3438 66.0313C37.1662 66.5097 36.8464 66.9223 36.4275 67.2137C36.0085 67.5051 35.5104 67.6613 35 67.6613C34.4897 67.6613 33.9916 67.5051 33.5726 67.2137C33.1536 66.9223 32.8339 66.5097 32.6563 66.0313L25.4063 46.0938C25.2797 45.7501 25.08 45.438 24.821 45.179C24.562 44.9201 24.2499 44.7204 23.9063 44.5937L3.96878 37.3438C3.49034 37.1662 3.07771 36.8464 2.78632 36.4274C2.49493 36.0085 2.33875 35.5103 2.33875 35C2.33875 34.4897 2.49493 33.9915 2.78632 33.5726C3.07771 33.1536 3.49034 32.8338 3.96878 32.6562L23.9063 25.4063C24.2499 25.2796 24.562 25.0799 24.821 24.821C25.08 24.562 25.2797 24.2499 25.4063 23.9062L32.6563 3.96875C32.8339 3.49031 33.1536 3.07768 33.5726 2.78629C33.9916 2.4949 34.4897 2.33871 35 2.33871C35.5104 2.33871 36.0085 2.4949 36.4275 2.78629C36.8464 3.07768 37.1662 3.49031 37.3438 3.96875L44.5938 23.9062C44.7204 24.2499 44.9201 24.562 45.1791 24.821C45.438 25.0799 45.7501 25.2796 46.0938 25.4063L66.0313 32.6562C66.5097 32.8338 66.9224 33.1536 67.2137 33.5726C67.5051 33.9915 67.6613 34.4897 67.6613 35C67.6613 35.5103 67.5051 36.0085 67.2137 36.4274C66.9224 36.8464 66.5097 37.1662 66.0313 37.3438L46.0938 44.5937C45.7501 44.7204 45.438 44.9201 45.1791 45.179C44.9201 45.438 44.7204 45.7501 44.5938 46.0938V46.0938Z" stroke="#6FCF97" stroke-width="3.5" stroke-linecap="round" stroke-linejoin="round"/>
</svg>
